<svg xmlns="http://www.w3.org/2000/svg" viewBox="0 0 262 24" fill="none" preserveAspectRatio="xMidYMid meet">
	<g transform="translate(0 2)">
		<path d="M16.3738 4.84336C15.6947 3.64091 14.1694 3.21667 12.967 3.89579L4.88012 8.46308C3.67768 9.1422 3.25343 10.6675 3.93255 11.87C4.61167 13.0724 6.13698 13.4966 7.33943 12.8175L15.4263 8.25024C16.6287 7.57112 17.0529 6.04581 16.3738 4.84336Z" fill="#FF7A6B"/>
		<path d="M3.89581 9.48709C4.57493 8.28464 6.10024 7.8604 7.30269 8.53952L15.3895 13.1068C16.592 13.7859 17.0162 15.3112 16.3371 16.5137C15.658 17.7161 14.1327 18.1404 12.9302 17.4613L4.84338 12.894C3.64093 12.2148 3.21669 10.6895 3.89581 9.48709Z" fill="#8AB4F8"/>
		<path d="M32.0911 9.48709C31.412 8.28464 29.8866 7.8604 28.6842 8.53952L20.5974 13.1068C19.3949 13.7859 18.9707 15.3112 19.6498 16.5137C20.3289 17.7161 21.8542 18.1404 23.0567 17.4613L31.1435 12.894C32.3459 12.2148 32.7702 10.6895 32.0911 9.48709Z" fill="#FFD45E"/>
		<path d="M19.613 4.84336C20.2922 3.64091 21.8175 3.21667 23.0199 3.89579L31.1068 8.46308C32.3092 9.1422 32.7334 10.6675 32.0543 11.87C31.3752 13.0724 29.8499 13.4966 28.6474 12.8175L20.5606 8.25024C19.3582 7.57112 18.9339 6.04581 19.613 4.84336Z" fill="#6EE7A0"/>
	</g>
	<text x="46" y="16" fill="#F4F2F6" font-family="Bricolage Grotesque, Arial, sans-serif" font-size="16" font-weight="700" letter-spacing="-0.16">
		GDG VIT Chennai
	</text>
</svg>
