<svg
                  width="17"
                  height="17"
                  viewBox="0 0 17 17"
                  fill="none"
                  xmlns="http://www.w3.org/2000/svg"
                >
                  <path
                    d="M4.64583 7.39583C4.84028 7.00694 5.04861 6.63194 5.27083 6.27083C5.50694 5.89583 5.75 5.52778 6 5.16667L4.85417 5.02083L3.02083 6.85417L4.64583 7.39583ZM14.125 1.77083C13.0278 1.79861 12 2.08333 11.0417 2.625C10.0833 3.16667 9.21528 3.83333 8.4375 4.625C7.90972 5.15278 7.4375 5.71528 7.02083 6.3125C6.60417 6.90972 6.22917 7.54167 5.89583 8.20833L8.02083 10.3333C8.6875 10 9.31945 9.625 9.91667 9.20833C10.5139 8.79167 11.0764 8.31944 11.6042 7.79167C12.3958 7 13.0694 6.10417 13.625 5.10417C14.1944 4.10417 14.4792 3.10417 14.4792 2.10417C14.4792 2.0625 14.4653 2.02083 14.4375 1.97917C14.4236 1.9375 14.4028 1.90278 14.375 1.875C14.3472 1.83333 14.3125 1.80555 14.2708 1.79167C14.2292 1.77778 14.1806 1.77083 14.125 1.77083ZM9.4375 6.8125C9.14583 6.52083 9 6.16667 9 5.75C9 5.33333 9.14583 4.97917 9.4375 4.6875C9.72917 4.39583 10.0833 4.25 10.5 4.25C10.9167 4.25 11.2708 4.39583 11.5625 4.6875C11.8542 4.97917 12 5.33333 12 5.75C12 6.16667 11.8542 6.52083 11.5625 6.8125C11.2708 7.10417 10.9167 7.25 10.5 7.25C10.0833 7.25 9.72917 7.10417 9.4375 6.8125ZM8.85417 11.6042L9.39583 13.2292L11.2292 11.3958L11.0833 10.25C10.7222 10.5 10.3542 10.7431 9.97917 10.9792C9.61806 11.2014 9.24306 11.4097 8.85417 11.6042ZM15.9375 1.10417C16.1181 2.54861 15.8958 3.92361 15.2708 5.22917C14.6597 6.53472 13.8333 7.70833 12.7917 8.75C12.7222 8.81944 12.6597 8.88194 12.6042 8.9375C12.5625 8.97917 12.5139 9.03472 12.4583 9.10417L12.7083 11.2083C12.7361 11.4444 12.7083 11.6736 12.625 11.8958C12.5556 12.1181 12.4375 12.3056 12.2708 12.4583L9.5 15.2292C9.30556 15.4097 9.08333 15.4792 8.83333 15.4375C8.59722 15.3819 8.44445 15.2361 8.375 15L7.3125 11.7708L4.5 8.9375L1.25 7.83333C1.01389 7.76389 0.875 7.61111 0.833334 7.375C0.791667 7.125 0.861111 6.90972 1.04167 6.72917L3.79167 3.95833C3.95833 3.79167 4.14583 3.67361 4.35417 3.60417C4.57639 3.52083 4.80556 3.49305 5.04167 3.52083L7.14583 3.79167C7.21528 3.72222 7.27778 3.65972 7.33333 3.60417C7.40278 3.54861 7.47222 3.48611 7.54167 3.41667C8.58333 2.38889 9.75 1.5625 11.0417 0.9375C12.3333 0.3125 13.6944 0.0972215 15.125 0.291665C15.2361 0.305555 15.3333 0.340277 15.4167 0.395833C15.5139 0.451388 15.5972 0.513888 15.6667 0.583332C15.7361 0.652776 15.7917 0.729165 15.8333 0.812499C15.8889 0.895833 15.9236 0.993055 15.9375 1.10417ZM1.70833 11.3542C2.13889 10.9097 2.65972 10.7014 3.27083 10.7292C3.88194 10.7431 4.40972 10.9722 4.85417 11.4167C5.28472 11.8472 5.50694 12.3611 5.52083 12.9583C5.54861 13.5556 5.34722 14.0625 4.91667 14.4792C4.29167 15.1319 3.53472 15.5556 2.64583 15.75C1.77083 15.9306 0.888889 16.0972 1.78814e-07 16.25C0.152778 15.375 0.319445 14.5 0.5 13.625C0.680556 12.7361 1.08333 11.9792 1.70833 11.3542ZM2.64583 12.5417C2.40972 12.7778 2.25 13.0556 2.16667 13.375C2.08333 13.6944 2 14.0139 1.91667 14.3333C2.23611 14.25 2.54861 14.1667 2.85417 14.0833C3.15972 14 3.43056 13.8403 3.66667 13.6042C3.84722 13.4514 3.94444 13.2639 3.95833 13.0417C3.98611 12.8056 3.92361 12.6111 3.77083 12.4583C3.61806 12.3056 3.43056 12.2431 3.20833 12.2708C2.98611 12.2847 2.79861 12.375 2.64583 12.5417Z"
                    fill="#0D0D11"
                  />
                </svg>