<svg preserveAspectRatio="none" width="100%" height="100%" overflow="visible" style="display: block;" viewBox="0 0 22 22" fill="none" xmlns="http://www.w3.org/2000/svg">
<g id="basil:linkedin-outline">
<path id="Vector" fill-rule="evenodd" clip-rule="evenodd" d="M4.58333 1.14583C3.91477 1.14583 3.27358 1.41142 2.80083 1.88417C2.32809 2.35692 2.0625 2.9981 2.0625 3.66667C2.0625 4.33523 2.32809 4.97642 2.80083 5.44917C3.27358 5.92191 3.91477 6.1875 4.58333 6.1875C5.2519 6.1875 5.89308 5.92191 6.36583 5.44917C6.83858 4.97642 7.10417 4.33523 7.10417 3.66667C7.10417 2.9981 6.83858 2.35692 6.36583 1.88417C5.89308 1.41142 5.2519 1.14583 4.58333 1.14583ZM3.4375 3.66667C3.4375 3.36277 3.55822 3.07133 3.77311 2.85644C3.98799 2.64155 4.27944 2.52083 4.58333 2.52083C4.88723 2.52083 5.17867 2.64155 5.39356 2.85644C5.60845 3.07133 5.72917 3.36277 5.72917 3.66667C5.72917 3.97056 5.60845 4.26201 5.39356 4.47689C5.17867 4.69178 4.88723 4.8125 4.58333 4.8125C4.27944 4.8125 3.98799 4.69178 3.77311 4.47689C3.55822 4.26201 3.4375 3.97056 3.4375 3.66667ZM2.0625 7.33333C2.0625 7.151 2.13493 6.97613 2.26386 6.8472C2.3928 6.71827 2.56766 6.64583 2.75 6.64583H6.41667C6.599 6.64583 6.77387 6.71827 6.9028 6.8472C7.03173 6.97613 7.10417 7.151 7.10417 7.33333V19.25C7.10417 19.4323 7.03173 19.6072 6.9028 19.7361C6.77387 19.8651 6.599 19.9375 6.41667 19.9375H2.75C2.56766 19.9375 2.3928 19.8651 2.26386 19.7361C2.13493 19.6072 2.0625 19.4323 2.0625 19.25V7.33333ZM3.4375 8.02083V18.5625H5.72917V8.02083H3.4375ZM8.47917 7.33333C8.47917 7.151 8.5516 6.97613 8.68053 6.8472C8.80946 6.71827 8.98433 6.64583 9.16667 6.64583H12.8333C13.0157 6.64583 13.1905 6.71827 13.3195 6.8472C13.4484 6.97613 13.5208 7.151 13.5208 7.33333V7.73117L13.9196 7.55975C14.6071 7.26605 15.3365 7.08201 16.0811 7.01433C18.6248 6.78333 20.8542 8.78167 20.8542 11.3483V19.25C20.8542 19.4323 20.7817 19.6072 20.6528 19.7361C20.5239 19.8651 20.349 19.9375 20.1667 19.9375H16.5C16.3177 19.9375 16.1428 19.8651 16.0139 19.7361C15.8849 19.6072 15.8125 19.4323 15.8125 19.25V12.8333C15.8125 12.5294 15.6918 12.238 15.4769 12.0231C15.262 11.8082 14.9706 11.6875 14.6667 11.6875C14.3628 11.6875 14.0713 11.8082 13.8564 12.0231C13.6416 12.238 13.5208 12.5294 13.5208 12.8333V19.25C13.5208 19.4323 13.4484 19.6072 13.3195 19.7361C13.1905 19.8651 13.0157 19.9375 12.8333 19.9375H9.16667C8.98433 19.9375 8.80946 19.8651 8.68053 19.7361C8.5516 19.6072 8.47917 19.4323 8.47917 19.25V7.33333ZM9.85417 8.02083V18.5625H12.1458V12.8333C12.1458 12.1648 12.4114 11.5236 12.8842 11.0508C13.3569 10.5781 13.9981 10.3125 14.6667 10.3125C15.3352 10.3125 15.9764 10.5781 16.4492 11.0508C16.9219 11.5236 17.1875 12.1648 17.1875 12.8333V18.5625H19.4792V11.3483C19.4792 9.603 17.9566 8.22433 16.2067 8.38383C15.6055 8.43838 15.0165 8.58685 14.4613 8.82383L13.1047 9.40592C13 9.45086 12.8859 9.46911 12.7724 9.45902C12.659 9.44893 12.5498 9.41082 12.4548 9.34811C12.3597 9.2854 12.2817 9.20006 12.2278 9.09975C12.1739 8.99944 12.1457 8.8873 12.1458 8.77342V8.02083H9.85417Z" fill="var(--fill-0, white)"/>
</g>
</svg>
