<svg preserveAspectRatio="none" width="100%" height="100%" overflow="visible" style="display: block;" viewBox="0 0 370.88 16" fill="none" xmlns="http://www.w3.org/2000/svg">
<g id="Mask">
<path id="Union" d="M335.44 3C339.143 3 342.771 4.30118 346.3 6.77148C349.438 8.96772 352.477 10 355.44 10C358.403 10 361.442 8.96772 364.58 6.77148L366.3 9.22852C362.771 11.6988 359.143 13 355.44 13C351.737 13 348.109 11.6988 344.58 9.22852C341.442 7.03228 338.403 6 335.44 6C332.477 6 329.438 7.03228 326.3 9.22852C322.771 11.6988 319.143 13 315.44 13C311.737 13 308.109 11.6988 304.58 9.22852C301.442 7.03228 298.403 6 295.44 6C292.477 6 289.438 7.03228 286.3 9.22852C282.771 11.6988 279.143 13 275.44 13C271.737 13 268.109 11.6988 264.58 9.22852C261.442 7.03228 258.403 6 255.44 6C252.477 6 249.438 7.03228 246.3 9.22852C242.771 11.6988 239.143 13 235.44 13C231.737 13 228.109 11.6988 224.58 9.22852C221.442 7.03228 218.403 6 215.44 6C212.477 6 209.438 7.03228 206.3 9.22852C202.771 11.6988 199.143 13 195.44 13C191.737 13 188.109 11.6988 184.58 9.22852C181.442 7.03228 178.403 6 175.44 6C172.477 6 169.438 7.03228 166.3 9.22852C162.771 11.6988 159.143 13 155.44 13C151.737 13 148.109 11.6988 144.58 9.22852C141.442 7.03228 138.403 6 135.44 6C132.477 6 129.438 7.03228 126.3 9.22852C122.771 11.6988 119.143 13 115.44 13C111.737 13 108.109 11.6988 104.58 9.22852C101.442 7.03228 98.4031 6 95.44 6C92.4769 6 89.4379 7.03228 86.3004 9.22852C82.7713 11.6988 79.1435 13 75.44 13C71.7365 13 68.1087 11.6988 64.5797 9.22852C61.4421 7.03228 58.4031 6 55.44 6C52.4769 6 49.4379 7.03228 46.3004 9.22852C42.7713 11.6988 39.1435 13 35.44 13C31.7365 13 28.1087 11.6988 24.5797 9.22852C21.4421 7.03228 18.4031 6 15.44 6C12.4769 6 9.43792 7.03228 6.30035 9.22852L4.57965 6.77148C8.10865 4.30118 11.7365 3 15.44 3C19.1435 3 22.7714 4.30118 26.3004 6.77148C29.4379 8.96772 32.4769 10 35.44 10C38.4031 10 41.4421 8.96772 44.5797 6.77148C48.1087 4.30118 51.7365 3 55.44 3C59.1435 3 62.7714 4.30118 66.3004 6.77148C69.4379 8.96772 72.4769 10 75.44 10C78.4031 10 81.4421 8.96772 84.5797 6.77148C88.1087 4.30118 91.7365 3 95.44 3C99.1435 3 102.771 4.30118 106.3 6.77148C109.438 8.96772 112.477 10 115.44 10C118.403 10 121.442 8.96772 124.58 6.77148C128.109 4.30118 131.737 3 135.44 3C139.143 3 142.771 4.30118 146.3 6.77148C149.438 8.96772 152.477 10 155.44 10C158.403 10 161.442 8.96772 164.58 6.77148C168.109 4.30118 171.737 3 175.44 3C179.143 3 182.771 4.30118 186.3 6.77148C189.438 8.96772 192.477 10 195.44 10C198.403 10 201.442 8.96772 204.58 6.77148C208.109 4.30118 211.737 3 215.44 3C219.143 3 222.771 4.30118 226.3 6.77148C229.438 8.96772 232.477 10 235.44 10C238.403 10 241.442 8.96772 244.58 6.77148C248.109 4.30118 251.737 3 255.44 3C259.143 3 262.771 4.30118 266.3 6.77148C269.438 8.96772 272.477 10 275.44 10C278.403 10 281.442 8.96772 284.58 6.77148C288.109 4.30118 291.737 3 295.44 3C299.143 3 302.771 4.30118 306.3 6.77148C309.438 8.96772 312.477 10 315.44 10C318.403 10 321.442 8.96772 324.58 6.77148C328.109 4.30118 331.737 3 335.44 3Z" fill="var(--fill-0, black)"/>
</g>
</svg>
