<svg preserveAspectRatio="none" width="100%" height="100%" overflow="visible" style="display: block;" viewBox="0 0 160 14" fill="none" xmlns="http://www.w3.org/2000/svg">
<g id="Mask" clip-path="url(#clip0_120_225)">
<path id="Union" d="M130 2.7002C133.606 2.7002 137.168 3.78493 140.669 5.88574C143.834 7.78482 146.939 8.7002 150 8.7002C153.061 8.7002 156.166 7.78482 159.331 5.88574L160.669 8.11426C157.168 10.2151 153.606 11.2998 150 11.2998C146.394 11.2998 142.832 10.2151 139.331 8.11426C136.166 6.21518 133.061 5.2998 130 5.2998C126.939 5.2998 123.834 6.21518 120.669 8.11426C117.168 10.2151 113.606 11.2998 110 11.2998C106.394 11.2998 102.832 10.2151 99.3311 8.11426C96.1658 6.21518 93.0609 5.2998 90 5.2998C86.9391 5.2998 83.8342 6.21518 80.6689 8.11426C77.1676 10.2151 73.6057 11.2998 70 11.2998C66.3943 11.2998 62.8324 10.2151 59.3311 8.11426C56.1658 6.21518 53.0609 5.2998 50 5.2998C46.9391 5.2998 43.8342 6.21518 40.6689 8.11426C37.1676 10.2151 33.6057 11.2998 30 11.2998C26.3943 11.2998 22.8324 10.2151 19.3311 8.11426C16.1658 6.21518 13.0609 5.2998 10 5.2998C6.93912 5.2998 3.83416 6.21518 0.668945 8.11426L-0.668945 5.88574C2.8324 3.78493 6.3943 2.7002 10 2.7002C13.6057 2.7002 17.1676 3.78493 20.6689 5.88574C23.8342 7.78482 26.9391 8.7002 30 8.7002C33.0609 8.7002 36.1658 7.78482 39.3311 5.88574C42.8324 3.78493 46.3943 2.7002 50 2.7002C53.6057 2.7002 57.1676 3.78493 60.6689 5.88574C63.8342 7.78482 66.9391 8.7002 70 8.7002C73.0609 8.7002 76.1658 7.78482 79.3311 5.88574C82.8324 3.78493 86.3943 2.7002 90 2.7002C93.6057 2.7002 97.1676 3.78493 100.669 5.88574C103.834 7.78482 106.939 8.7002 110 8.7002C113.061 8.7002 116.166 7.78482 119.331 5.88574C122.832 3.78493 126.394 2.7002 130 2.7002Z" fill="var(--fill-0, black)"/>
</g>
<defs>
<clipPath id="clip0_120_225">
<rect width="160" height="14" fill="white"/>
</clipPath>
</defs>
</svg>
